<svg width="18" height="18" viewBox="0 0 18 18" fill="none" xmlns="http://www.w3.org/2000/svg">
<path d="M5.6025 16.125C3.15 14.955 1.395 12.57 1.125 9.75H0C0.375 14.37 4.245 18 8.9625 18L9.4575 17.9775L6.6 15.12L5.6025 16.125ZM6.27 11.22C6.1275 11.22 6 11.1975 5.88 11.16C5.76798 11.1228 5.66554 11.0613 5.58 10.98C5.4975 10.905 5.43 10.815 5.385 10.7025C5.34 10.5975 5.3175 10.4775 5.3175 10.35H4.3425C4.3425 10.62 4.395 10.875 4.5 11.0625C4.605 11.25 4.7475 11.4375 4.92 11.58C5.1 11.715 5.3025 11.82 5.535 11.8875C5.76 11.9625 6 12 6.255 12C6.5325 12 6.795 11.9625 7.0275 11.8875C7.2675 11.8125 7.4775 11.7 7.65 11.5575C7.8225 11.415 7.965 11.25 8.0625 11.0175C8.16 10.8 8.2125 10.56 8.2125 10.29C8.2125 10.1475 8.1975 10.005 8.16 9.87C8.1225 9.75 8.07 9.6075 7.9875 9.4875C7.9125 9.375 7.8075 9.2625 7.6875 9.165C7.56 9.0675 7.41 9 7.23 8.9325C7.50179 8.81281 7.73347 8.61756 7.8975 8.37C7.9725 8.25 8.025 8.145 8.0625 8.025C8.1 7.905 8.115 7.785 8.115 7.665C8.115 7.395 8.07 7.155 7.98 6.945C7.875 6.75 7.7625 6.5625 7.5975 6.4275C7.4475 6.285 7.245 6.18 7.02 6.105C6.7875 6.0375 6.5325 6 6.255 6C6 6 5.7375 6.0375 5.505 6.12C5.28 6.2025 5.0775 6.315 4.9125 6.4575C4.755 6.6 4.6275 6.75 4.53 6.96C4.44 7.155 4.395 7.365 4.395 7.5975H5.37C5.37 7.47 5.3925 7.3575 5.4375 7.26C5.47987 7.16189 5.54398 7.07469 5.625 7.005C5.7075 6.9375 5.7975 6.8775 5.91 6.84C6.0225 6.8025 6.135 6.78 6.27 6.78C6.57 6.78 6.795 6.855 6.9375 7.0125C7.08 7.1625 7.155 7.38 7.155 7.6575C7.155 7.7925 7.125 7.9125 7.095 8.025C7.05771 8.13224 6.99308 8.22789 6.9075 8.3025C6.825 8.3775 6.72 8.4375 6.6 8.4825C6.48 8.5275 6.33 8.55 6.165 8.55H5.5875V9.3225H6.165C6.33 9.3225 6.48 9.3375 6.615 9.375C6.75 9.4125 6.8625 9.4725 6.9525 9.5475C7.0425 9.63 7.125 9.7275 7.17 9.8475C7.2225 9.9675 7.245 10.125 7.245 10.275C7.245 10.5825 7.155 10.815 6.9825 10.9725C6.81 11.145 6.57 11.22 6.27 11.22ZM12.6825 6.78C12.4425 6.5325 12.1575 6.3375 11.8275 6.2025C11.505 6.0675 11.1375 6 10.7325 6H8.9625V12H10.6875C11.1 12 11.4825 11.9325 11.82 11.7975C12.1575 11.6625 12.45 11.475 12.69 11.2275C12.93 10.98 13.125 10.68 13.245 10.335C13.3725 9.9825 13.44 9.5925 13.44 9.1575V8.8575C13.44 8.4225 13.3725 8.0325 13.245 7.68C13.125 7.3275 12.9225 7.0275 12.6825 6.78ZM12.375 9.15C12.375 9.465 12.3525 9.75 12.285 9.9975C12.21 10.245 12.105 10.4625 11.9625 10.635C11.82 10.8075 11.625 10.9425 11.43 11.0325C11.2125 11.1225 10.965 11.1675 10.6875 11.1675H10.005V6.84H10.7325C11.2725 6.84 11.685 7.0125 11.9625 7.3575C12.2475 7.7025 12.375 8.1975 12.375 8.85V9.15ZM8.9625 0L8.4675 0.0225L11.325 2.88L12.3225 1.875C14.775 3.045 16.53 5.4225 16.7925 8.25H17.9175C17.5425 3.63 13.68 0 8.9625 0Z" fill="#CAB786"/>
</svg>
