<svg width="24" height="24" viewBox="0 0 24 24" fill="none" xmlns="http://www.w3.org/2000/svg">
<path d="M20 7.4H17.6571C17.3714 6.02 16.2286 5 14.8571 5C13.4857 5 12.3429 6.02 12.0571 7.4H4V8.6H12.0571C12.3429 9.98 13.4857 11 14.8571 11C16.2286 11 17.3714 9.98 17.6571 8.6H20V7.4ZM14.8571 9.8C13.8857 9.8 13.1429 9.02 13.1429 8C13.1429 6.98 13.8857 6.2 14.8571 6.2C15.8286 6.2 16.5714 6.98 16.5714 8C16.5714 9.02 15.8286 9.8 14.8571 9.8Z" fill="black"/>
<path d="M4 16.6H6.34286C6.62857 17.98 7.77143 19 9.14286 19C10.5143 19 11.6571 17.98 11.9429 16.6H20V15.4H11.9429C11.6571 14.02 10.5143 13 9.14286 13C7.77143 13 6.62857 14.02 6.34286 15.4H4V16.6ZM9.14286 14.2C10.1143 14.2 10.8571 14.98 10.8571 16C10.8571 17.02 10.1143 17.8 9.14286 17.8C8.17143 17.8 7.42857 17.02 7.42857 16C7.42857 14.98 8.17143 14.2 9.14286 14.2Z" fill="black"/>
</svg>
