<?xml version="1.0" encoding="UTF-8"?>
<svg width="28px" height="23px" viewBox="0 0 28 23" version="1.1" xmlns="http://www.w3.org/2000/svg" xmlns:xlink="http://www.w3.org/1999/xlink">
    <title>wishlist--active</title>
    <g id="Page-1" stroke="none" stroke-width="1" fill="none" fill-rule="evenodd">
        <g id="heart" transform="translate(-237.000000, -1689.000000)" fill="#FFFFFF" fill-rule="nonzero" stroke="currentColor" stroke-width="2">
            <g id="wishlist--active" transform="translate(237.000000, 1689.000000)">
                <path d="M20.7775,1 C22.313505,1 23.8522868,1.53752661 25.0248614,2.62308353 C26.3364991,3.83999187 27,5.43143844 27,7.0265 C27,8.6212072 26.3367446,10.211495 25.0255232,11.426303 L25.0255232,11.426303 L14.0001498,21.6369009 L2.97727429,11.4241155 C1.66426748,10.2088129 1,8.61845263 1,7.024 C1,5.42954737 1.66426748,3.83918714 2.97748868,2.62368599 C4.15034616,1.53746738 5.6888271,1 7.224625,1 C8.76051772,1 10.2992915,1.53753102 11.4727977,2.6239511 L11.4727977,2.6239511 L14.0023675,4.96482864 L16.5293543,2.62381045 C17.7027132,1.53752661 19.241495,1 20.7775,1 Z" id="Path"></path>
            </g>
        </g>
    </g>
</svg>
