<svg width="16" height="17" viewBox="0 0 16 17" fill="none" xmlns="http://www.w3.org/2000/svg">
<path d="M14.8557 12.8785C14.2974 12.2847 12.9453 11.4182 12.2893 11.069C11.435 10.6148 11.3647 10.5777 10.6932 11.1043C10.2453 11.4557 9.94751 11.7696 9.42333 11.6516C8.89915 11.5336 7.76008 10.8683 6.7627 9.8188C5.76532 8.76935 5.0984 7.53213 4.98626 6.98068C4.87411 6.42923 5.17645 6.11863 5.50622 5.64474C5.97098 4.97677 5.93583 4.86545 5.53856 3.96369C5.22883 3.26232 4.38403 1.84845 3.81942 1.26212C3.21544 0.632378 3.21544 0.743707 2.82626 0.91441C2.50942 1.05512 2.20545 1.22617 1.91817 1.42541C1.35567 1.81988 1.04348 2.14755 0.825162 2.64C0.606842 3.13244 0.508756 4.28691 1.63622 6.4489C2.76368 8.61089 3.55469 9.71638 5.19192 11.4397C6.82915 13.1631 8.08809 14.0897 9.92852 15.1793C12.2052 16.5252 13.0785 16.2628 13.5465 16.0328C14.0144 15.8027 14.3262 15.4761 14.7006 14.8824C14.8899 14.5796 15.0523 14.2592 15.1858 13.925C15.3479 13.5156 15.4533 13.5156 14.8557 12.8785Z" stroke="currentColor" stroke-miterlimit="10"/>
</svg>
