<?xml version="1.0" encoding="UTF-8"?>
<svg width="19px" height="19px" viewBox="0 0 19 19" version="1.1" xmlns="http://www.w3.org/2000/svg" xmlns:xlink="http://www.w3.org/1999/xlink">
    <title>Path</title>
    <g id="Page-1" stroke="none" stroke-width="2" fill="none" fill-rule="evenodd">
        <g id="pin" transform="translate(1.000000, 1.000000)" fill="#FFFFFF" fill-rule="nonzero" stroke="currentColor">
            <path d="M12.1174,0.194503 L16.8057,4.88277 C16.9662,5.04313 17.033,5.27129 16.9845,5.493 C16.9365,5.71404 16.7808,5.89367 16.568,5.97276 C15.8477,6.24087 15.0408,6.3064 14.27,6.16258 L10.2492,10.7264 C10.6014,11.72 10.6404,12.7735 10.3601,13.7892 C10.1339,14.6086 9.77912,15.1338 9.71031,15.2307 C9.59574,15.3907 9.4191,15.4908 9.22466,15.5068 C9.20615,15.5084 9.18764,15.5092 9.16921,15.5092 C8.99449,15.5092 8.82626,15.44 8.70121,15.3148 L5.48393,12.0977 L0.701849,16.8796 C0.621592,16.9599 0.516354,17 0.411137,17 C0.305899,17 0.200705,16.9599 0.120426,16.8796 C-0.0401532,16.719 -0.0401309,16.4587 0.120426,16.2981 L4.90231,11.5164 L1.68491,8.29906 C1.54661,8.16077 1.47668,7.96975 1.4931,7.77498 C1.50898,7.58135 1.60914,7.40465 1.76782,7.29107 C1.85243,7.23069 3.79994,5.87132 6.27368,6.75081 L10.8376,2.73005 C10.6942,1.95961 10.7596,1.15294 11.0271,0.432522 C11.1063,0.219396 11.286,0.0635267 11.5077,0.0154143 C11.7286,-0.0329211 11.9569,0.03395 12.1174,0.194503 Z" id="Path"></path>
        </g>
    </g>
</svg>
