<svg width="75" height="75" viewBox="0 0 75 75" fill="none" xmlns="http://www.w3.org/2000/svg">
<path d="M53.4467 38.796H20.1475C19.3816 38.796 18.76 38.1969 18.76 37.4587V26.7601C18.76 17.1742 26.8517 9.375 36.7971 9.375C46.7424 9.375 54.8341 17.1742 54.8341 26.7601C54.8341 27.4983 54.2125 28.0974 53.4467 28.0974C52.6808 28.0974 52.0592 27.4983 52.0592 26.7601C52.0592 18.648 45.2107 12.0496 36.7971 12.0496C28.3835 12.0496 21.5349 18.648 21.5349 26.7601V36.1213H53.4467C54.2125 36.1213 54.8341 36.7205 54.8341 37.4587C54.8341 38.1969 54.2125 38.796 53.4467 38.796Z" fill="#CAB786"/>
<path d="M53.4467 73.566H20.1475C16.3209 73.566 13.2102 70.565 13.2102 66.8794V42.8077C13.2102 39.122 16.3209 36.1211 20.1475 36.1211H53.4467C57.2734 36.1211 60.3841 39.122 60.3841 42.8077V66.8794C60.3841 70.565 57.2734 73.566 53.4467 73.566ZM20.1475 38.7957C17.8527 38.7957 15.9851 40.5958 15.9851 42.8077V66.8794C15.9851 69.0913 17.8527 70.8913 20.1475 70.8913H53.4467C55.7416 70.8913 57.6091 69.0913 57.6091 66.8794V42.8077C57.6091 40.5958 55.7416 38.7957 53.4467 38.7957H20.1475Z" fill="#CAB786"/>
<path d="M36.7969 65.5418C36.031 65.5418 35.4094 64.9427 35.4094 64.2045V56.1806C35.4094 55.4424 36.031 54.8433 36.7969 54.8433C37.5628 54.8433 38.1844 55.4424 38.1844 56.1806V64.2045C38.1844 64.9427 37.5628 65.5418 36.7969 65.5418Z" fill="#CAB786"/>
<path d="M36.797 57.5187C32.9703 57.5187 29.8596 54.5177 29.8596 50.8321C29.8596 47.1464 32.9703 44.1455 36.797 44.1455C40.6236 44.1455 43.7343 47.1464 43.7343 50.8321C43.7343 54.5177 40.6236 57.5187 36.797 57.5187ZM36.797 46.8201C34.5021 46.8201 32.6346 48.6202 32.6346 50.8321C32.6346 53.044 34.5021 54.844 36.797 54.844C39.0918 54.844 40.9594 53.044 40.9594 50.8321C40.9594 48.6202 39.0918 46.8201 36.797 46.8201Z" fill="#CAB786"/>
<line x1="0.75" y1="-0.75" x2="4.99241" y2="-0.75" transform="matrix(0.848318 -0.529488 0.47108 0.882091 61.9336 25.3379)" stroke="#CAB786" stroke-width="1.5" stroke-linecap="round"/>
<line x1="0.75" y1="-0.75" x2="5.12566" y2="-0.75" transform="matrix(-0.649341 -0.760498 0.707846 -0.706367 23.9404 9.22559)" stroke="#CAB786" stroke-width="1.5" stroke-linecap="round"/>
<line x1="0.75" y1="-0.75" x2="5.12566" y2="-0.75" transform="matrix(0.649341 -0.760498 -0.707846 -0.706367 50.625 8.82666)" stroke="#CAB786" stroke-width="1.5" stroke-linecap="round"/>
<line x1="0.75" y1="-0.75" x2="4.99242" y2="-0.75" transform="matrix(-0.848318 -0.529488 0.47108 -0.882091 13.801 23.9409)" stroke="#CAB786" stroke-width="1.5" stroke-linecap="round"/>
<line x1="36.75" y1="5.63477" x2="36.75" y2="1.05369" stroke="#CAB786" stroke-width="1.5" stroke-linecap="round"/>
</svg>
