<svg width="20" height="19" viewBox="0 0 20 19" fill="none" xmlns="http://www.w3.org/2000/svg">
<path d="M0.342312 0.0888847C0.145189 0.113337 -0.00150796 0.281443 2.01312e-05 0.480114V15.3468C-0.00150796 15.4981 0.0840652 15.6356 0.220065 15.7014L4.91436 18.0487C5.02285 18.1007 5.14815 18.1007 5.25665 18.0487L9.79202 15.7747L14.7064 18.0487C14.8164 18.0976 14.9432 18.0931 15.0486 18.0365L19.3517 15.6891C19.4786 15.6219 19.558 15.4905 19.5596 15.3468V0.480114C19.558 0.344101 19.4862 0.217257 19.3686 0.146958C19.2509 0.0766588 19.1057 0.0736025 18.985 0.137788L14.8531 2.38735L9.93872 0.125562C9.83481 0.0766588 9.71256 0.0766588 9.60865 0.125562L5.0855 2.38735L0.562357 0.125562C0.493593 0.0919414 0.417189 0.0797155 0.342312 0.0888847ZM10.171 1.07918L14.4741 3.07201V17.0829L10.171 15.1023V1.07918ZM0.782402 1.11586L4.69431 3.07201V17.0584L0.782402 15.1023V1.11586ZM9.3886 1.11586V15.1023L5.47669 17.0584V3.07201L9.3886 1.11586ZM18.7772 1.14031V15.1145L15.2565 17.034V3.05978L18.7772 1.14031Z" fill="currentColor"/>
</svg>
