<svg width="19" height="19" viewBox="0 0 19 19" fill="none" xmlns="http://www.w3.org/2000/svg">
<path d="M7.83007 15.6482C3.51255 15.6482 0 12.1383 0 7.8241C0 3.50987 3.51255 0 7.83007 0C12.1476 0 15.6601 3.50987 15.6601 7.8241C15.6601 12.1383 12.1476 15.6482 7.83007 15.6482ZM7.83007 1.48324C4.33103 1.48324 1.48437 4.32773 1.48437 7.8241C1.48437 11.3205 4.33103 14.165 7.83007 14.165C11.3291 14.165 14.1758 11.3205 14.1758 7.8241C14.1758 4.32773 11.3291 1.48324 7.83007 1.48324ZM18.7826 18.7828C19.0725 18.4932 19.0725 18.0236 18.7826 17.734L15.4613 14.4152C15.1715 14.1256 14.7015 14.1256 14.4117 14.4152C14.1219 14.7049 14.1219 15.1745 14.4117 15.4641L17.733 18.7828C17.8779 18.9276 18.0679 19 18.2578 19C18.4478 19 18.6377 18.9276 18.7826 18.7828Z" fill="currentColor"/>
</svg>
