<?xml version="1.0" encoding="UTF-8"?>
<svg width="15px" height="15px" viewBox="0 0 15 15" version="1.1" xmlns="http://www.w3.org/2000/svg" xmlns:xlink="http://www.w3.org/1999/xlink">
    <title>star</title>
    <g stroke="none" stroke-width="1" fill="none" fill-rule="evenodd">
        <g id="star" transform="translate(-207.000000, -1655.000000)" fill="#FFFFFF" fill-rule="nonzero" stroke="currentColor">
            <g transform="translate(207.000000, 1655.000000)">
                <path d="M7.14003784,1.35614627 C7.62775139,1.254883 7.7524801,1.28991969 7.86106201,1.35614009 C7.96964871,1.42236694 8.05790106,1.51722566 8.11607168,1.63020204 L8.11607168,1.63020204 L9.80562558,4.91348396 L13.4515692,5.50600462 C13.5768744,5.52606273 13.6941848,5.5804132 13.7904371,5.66294491 C13.8867239,5.74555004 13.9583752,5.85318066 13.9980277,5.97624971 C14.0375259,6.09687 14.0429263,6.22607406 14.0135639,6.34955854 C13.9842105,6.47299894 13.9211923,6.58588937 13.8308237,6.67657525 L13.8308237,6.67657525 L11.2303968,9.29806055 L11.7932803,12.9476573 C11.812729,13.0733479 11.797067,13.2019316 11.748221,13.3192896 C11.6993246,13.4367107 11.618919,13.5383616 11.5161313,13.6130742 C11.4131939,13.6878532 11.2917378,13.7327973 11.1649372,13.7430157 C11.0381109,13.7532361 10.9109352,13.728327 10.7973018,13.6709875 L10.7973018,13.6709875 L7.50055815,12.007879 L4.20342124,13.6712132 C4.08989986,13.7286241 3.96273811,13.7536555 3.8359252,13.7434966 C3.70912557,13.7333391 3.58760731,13.6883208 3.48470875,13.6135742 C3.38182809,13.5388363 3.30155372,13.4371747 3.25267697,13.3196289 C3.20383885,13.202248 3.18834328,13.0736103 3.20795696,12.9474161 L3.20795696,12.9474161 L3.77081427,9.29805806 L1.17042235,6.67666103 C1.08087504,6.58634493 1.0179363,6.4731039 0.988511318,6.3493709 C0.95908625,6.22563755 0.964311681,6.09618459 1.00361777,5.97522 C1.04292269,5.85425319 1.11478886,5.74645735 1.21133254,5.66364323 C1.3078618,5.5808395 1.42534072,5.52622519 1.55076754,5.50581482 L1.55076754,5.50581482 L5.19544188,4.9134832 L6.8849843,1.630307 C6.94320894,1.51722566 7.03146129,1.42236694 7.14003784,1.35614627 Z" id="Path"></path>
            </g>
        </g>
    </g>
</svg>
