<svg width="24" height="24" viewBox="0 0 24 24" fill="none" xmlns="http://www.w3.org/2000/svg">
<path d="M12.4344 23.0905C12.4946 23.0882 12.5548 23.0858 12.6148 23.0826C12.6654 23.08 12.7159 23.0767 12.7664 23.0734C12.8129 23.0703 12.8593 23.0669 12.9058 23.0633C12.9642 23.0587 13.0225 23.0538 13.0806 23.0483C13.1146 23.0451 13.1484 23.0415 13.1823 23.0379C13.5072 23.0043 13.8288 22.9566 14.1471 22.8948C14.1697 22.8904 14.1924 22.8862 14.215 22.8817C14.2802 22.8687 14.3451 22.8548 14.41 22.8406C14.4452 22.8329 14.4804 22.825 14.5155 22.8169C14.5713 22.8041 14.6271 22.791 14.6826 22.7773C14.737 22.764 14.7912 22.7498 14.8453 22.7356C14.8827 22.7258 14.9201 22.7164 14.9572 22.7062C16.7949 22.2044 18.4793 21.2324 19.8628 19.8505C20.0159 19.6975 20.1635 19.5404 20.3065 19.3803C20.3125 19.3735 20.3185 19.3667 20.3245 19.36C20.3884 19.288 20.4513 19.2154 20.5131 19.1421C20.5183 19.136 20.5234 19.13 20.5284 19.1239C22.203 17.1312 23.1156 14.6389 23.1156 12.0058C23.1156 9.37203 22.2025 6.87907 20.5271 4.88609C20.5229 4.88112 20.5187 4.87615 20.5146 4.87118C20.4516 4.79656 20.3876 4.72268 20.3225 4.64951C20.3176 4.64388 20.3126 4.63821 20.3076 4.63259C20.1642 4.47199 20.0163 4.31445 19.8628 4.16107C18.4791 2.77901 16.7944 1.80692 14.9565 1.30512C14.9203 1.29518 14.8839 1.28609 14.8477 1.27653C14.7925 1.26204 14.7373 1.24765 14.6818 1.23401C14.6269 1.22046 14.5718 1.20762 14.5167 1.19496C14.4808 1.18671 14.4448 1.1786 14.4088 1.17073C14.3445 1.15662 14.2802 1.14293 14.2156 1.12999C14.1923 1.12531 14.1689 1.12099 14.1456 1.11645C13.8952 1.06793 13.6428 1.02757 13.3884 0.9964C13.3874 0.996307 13.3865 0.996166 13.3855 0.996025C13.3181 0.987775 13.2504 0.980697 13.1827 0.973666C13.1486 0.970103 13.1145 0.966447 13.0803 0.963166C13.0222 0.957682 12.9641 0.952807 12.9058 0.94826C12.8593 0.944557 12.8128 0.941228 12.7662 0.938135C12.7157 0.934807 12.6653 0.931572 12.6147 0.9289C12.5546 0.925713 12.4944 0.923322 12.4341 0.921072C12.3947 0.919619 12.3553 0.917791 12.3158 0.91676C12.2142 0.914041 12.1124 0.912354 12.0103 0.912354C11.9083 0.912354 11.8065 0.914041 11.7049 0.91676C11.6654 0.917791 11.6262 0.919619 11.5869 0.921072C11.5265 0.923322 11.4661 0.925713 11.4058 0.9289C11.3555 0.931572 11.3053 0.93476 11.2551 0.938088C11.2081 0.941229 11.1611 0.944604 11.1142 0.948354C11.0564 0.9529 10.9987 0.957729 10.9412 0.963119C10.9061 0.966447 10.8711 0.970197 10.8362 0.973854C10.7694 0.980791 10.7027 0.987775 10.6362 0.995885C10.6324 0.996353 10.6287 0.996916 10.6249 0.997385C10.3747 1.02818 10.1266 1.06784 9.88044 1.11546C9.85457 1.12043 9.8286 1.12531 9.80277 1.13046C9.74028 1.14303 9.67799 1.15624 9.61574 1.16988C9.57702 1.17832 9.53839 1.18704 9.49977 1.19595C9.44717 1.20804 9.39468 1.22032 9.34232 1.23321C9.28255 1.24788 9.22302 1.26335 9.16353 1.27901C9.13142 1.28749 9.09922 1.29556 9.06716 1.30432C7.22825 1.80588 5.54267 2.77821 4.15846 4.16103C4.00475 4.31459 3.85672 4.47228 3.71319 4.63306C3.70855 4.63826 3.70396 4.64351 3.69932 4.64871C3.63341 4.72282 3.56863 4.79768 3.50492 4.87324C3.50188 4.8769 3.49878 4.88051 3.49569 4.88417C1.81963 6.87739 0.906128 9.37109 0.906128 12.0057C0.906128 14.6413 1.82033 17.136 3.49771 19.1296C3.4993 19.1315 3.50094 19.1334 3.50258 19.1353C3.56788 19.2128 3.6343 19.2896 3.70189 19.3656C3.70508 19.3692 3.70832 19.3728 3.71155 19.3764C3.8556 19.5379 4.00414 19.6962 4.15846 19.8503C5.54267 21.2331 7.22821 22.2055 9.06716 22.707C9.09913 22.7158 9.13128 22.7238 9.16335 22.7322C9.22292 22.7479 9.2825 22.7634 9.34236 22.7781C9.39463 22.791 9.44708 22.8032 9.49958 22.8154C9.53835 22.8242 9.57711 22.833 9.61592 22.8415C9.67799 22.8551 9.74019 22.8683 9.80253 22.8808C9.8286 22.886 9.8548 22.891 9.88091 22.896C10.1263 22.9434 10.3736 22.9829 10.6229 23.0137C10.6274 23.0143 10.6319 23.0149 10.6365 23.0155C10.7027 23.0236 10.7692 23.0305 10.8357 23.0374C10.8709 23.0411 10.9062 23.0449 10.9415 23.0482C10.9989 23.0536 11.0564 23.0585 11.114 23.063C11.1611 23.0667 11.2083 23.0701 11.2554 23.0733C11.3055 23.0765 11.3555 23.0798 11.4058 23.0824C11.4661 23.0856 11.5266 23.088 11.5872 23.0903C11.6264 23.0917 11.6656 23.0935 11.7049 23.0946C11.8065 23.0974 11.9083 23.099 12.0104 23.099C12.0105 23.099 12.0105 23.099 12.0106 23.099C12.1126 23.099 12.2143 23.0973 12.3157 23.0946C12.3554 23.0937 12.3949 23.0919 12.4344 23.0905ZM1.5681 12.3339H6.84552C6.86207 13.5864 6.97302 14.8039 7.17121 15.9458C7.11167 15.9654 7.05196 15.9847 6.9928 16.0051C5.62724 16.4761 4.40403 17.1465 3.42992 17.9535C2.31191 16.3488 1.63288 14.4175 1.5681 12.3339ZM3.42992 6.0581C4.40403 6.8652 5.62719 7.53556 6.99275 8.00651C7.05196 8.02695 7.11167 8.04621 7.17121 8.06585C6.97297 9.20768 6.86207 10.4252 6.84552 11.6776H1.5681C1.63288 9.59417 2.31191 7.66282 3.42992 6.0581ZM9.99022 1.76524C9.35483 2.33224 8.77738 3.17248 8.28908 4.25871C7.87119 5.18839 7.53772 6.25437 7.29664 7.4104C5.9623 6.96143 4.77022 6.32417 3.82157 5.53142C5.33764 3.62187 7.50758 2.25307 9.99022 1.76524ZM22.4537 11.6777H17.1744C17.1578 10.4254 17.0469 9.20806 16.8487 8.06632C16.9086 8.04654 16.9688 8.02709 17.0285 8.00656C18.3938 7.53565 19.6171 6.86524 20.5917 6.05806C21.7098 7.66273 22.3889 9.59412 22.4537 11.6777ZM20.5916 17.9535C19.6171 17.1463 18.3938 16.476 17.0285 16.0051C16.9688 15.9846 16.9086 15.9651 16.8486 15.9454C17.0469 14.8036 17.1578 13.5863 17.1743 12.334H22.4536C22.3889 14.4175 21.7098 16.3488 20.5916 17.9535ZM8.88767 19.4838C8.48127 18.5797 8.15811 17.5384 7.92594 16.4064C9.10578 16.0722 10.3789 15.8805 11.6823 15.8529V22.413C10.6551 22.228 9.65174 21.1836 8.88767 19.4838ZM12.3385 12.3339H16.5181C16.5021 13.5201 16.3991 14.6718 16.2162 15.7527C14.9857 15.4092 13.6863 15.2221 12.3385 15.1961V12.3339ZM12.3385 11.6777V8.81557C13.6863 8.78956 14.9857 8.60253 16.2162 8.25893C16.3991 9.33987 16.5021 10.4915 16.5181 11.6777H12.3385ZM12.3385 8.15876V1.5986C13.365 1.78371 14.368 2.82809 15.132 4.52782C15.5385 5.43209 15.8617 6.47346 16.094 7.60554C14.9142 7.93953 13.6415 8.13115 12.3385 8.15876ZM11.6823 8.15876C10.3788 8.13115 9.10578 7.93939 7.92589 7.60521C8.15802 6.47318 8.48122 5.43185 8.88763 4.52778C9.65174 2.8279 10.6551 1.78357 11.6823 1.59851V8.15876ZM11.6823 8.81557V11.6777H7.50181C7.51785 10.4914 7.62078 9.33954 7.80369 8.2586C9.03453 8.60239 10.3343 8.78956 11.6823 8.81557ZM11.6823 12.3339V15.1962C10.3343 15.2222 9.03453 15.4093 7.80374 15.7531C7.62078 14.6721 7.51785 13.5203 7.50181 12.334H11.6823V12.3339ZM12.3385 15.8529C13.6415 15.8805 14.9142 16.0722 16.0939 16.4061C15.8617 17.5382 15.5385 18.5795 15.132 19.4838C14.3679 21.1835 13.365 22.2279 12.3385 22.413V15.8529H12.3385ZM15.7306 19.7529C16.1486 18.8231 16.4821 17.757 16.7232 16.6009C18.0581 17.05 19.2508 17.6873 20.2 18.4803C18.6835 20.3901 16.5129 21.759 14.0295 22.2467C14.6648 21.6796 15.2422 20.8392 15.7306 19.7529ZM20.2 5.53137C19.2508 6.32435 18.0581 6.96171 16.7232 7.41068C16.4821 6.25465 16.1486 5.18857 15.7306 4.25871C15.2422 3.17234 14.6648 2.33196 14.0295 1.76496C16.5129 2.2526 18.6835 3.62149 20.2 5.53137ZM7.29664 16.6012C7.53777 17.7572 7.87119 18.8232 8.28908 19.7529C8.77738 20.8391 9.35478 21.6793 9.99018 22.2463C7.50758 21.7585 5.33769 20.3897 3.82157 18.4802C4.77017 17.6875 5.96225 17.0502 7.29664 16.6012Z" fill="currentColor"/>
</svg>
