<svg width="343" height="328" viewBox="0 0 343 328" fill="none" xmlns="http://www.w3.org/2000/svg">
<rect width="343" height="328" fill="#8D8D8D"/>
<path d="M139.384 36.176V41H137.647V28.103H141.454C142.27 28.103 142.978 28.199 143.578 28.391C144.184 28.577 144.685 28.844 145.081 29.192C145.477 29.54 145.771 29.96 145.963 30.452C146.161 30.944 146.26 31.493 146.26 32.099C146.26 32.699 146.155 33.248 145.945 33.746C145.735 34.244 145.426 34.673 145.018 35.033C144.616 35.393 144.115 35.675 143.515 35.879C142.921 36.077 142.234 36.176 141.454 36.176H139.384ZM139.384 34.79H141.454C141.952 34.79 142.39 34.724 142.768 34.592C143.152 34.46 143.473 34.277 143.731 34.043C143.995 33.803 144.193 33.518 144.325 33.188C144.457 32.858 144.523 32.495 144.523 32.099C144.523 31.277 144.268 30.635 143.758 30.173C143.254 29.711 142.486 29.48 141.454 29.48H139.384V34.79ZM151.34 31.739C151.886 31.739 152.39 31.832 152.852 32.018C153.32 32.198 153.722 32.462 154.058 32.81C154.4 33.152 154.667 33.578 154.859 34.088C155.051 34.592 155.147 35.168 155.147 35.816C155.147 36.068 155.12 36.236 155.066 36.32C155.012 36.404 154.91 36.446 154.76 36.446H148.667C148.679 37.022 148.757 37.523 148.901 37.949C149.045 38.375 149.243 38.732 149.495 39.02C149.747 39.302 150.047 39.515 150.395 39.659C150.743 39.797 151.133 39.866 151.565 39.866C151.967 39.866 152.312 39.821 152.6 39.731C152.894 39.635 153.146 39.533 153.356 39.425C153.566 39.317 153.74 39.218 153.878 39.128C154.022 39.032 154.145 38.984 154.247 38.984C154.379 38.984 154.481 39.035 154.553 39.137L155.003 39.722C154.805 39.962 154.568 40.172 154.292 40.352C154.016 40.526 153.719 40.67 153.401 40.784C153.089 40.898 152.765 40.982 152.429 41.036C152.093 41.096 151.76 41.126 151.43 41.126C150.8 41.126 150.218 41.021 149.684 40.811C149.156 40.595 148.697 40.283 148.307 39.875C147.923 39.461 147.623 38.951 147.407 38.345C147.191 37.739 147.083 37.043 147.083 36.257C147.083 35.621 147.179 35.027 147.371 34.475C147.569 33.923 147.851 33.446 148.217 33.044C148.583 32.636 149.03 32.318 149.558 32.09C150.086 31.856 150.68 31.739 151.34 31.739ZM151.376 32.918C150.602 32.918 149.993 33.143 149.549 33.593C149.105 34.037 148.829 34.655 148.721 35.447H153.707C153.707 35.075 153.653 34.736 153.545 34.43C153.443 34.118 153.29 33.851 153.086 33.629C152.888 33.401 152.645 33.227 152.357 33.107C152.069 32.981 151.742 32.918 151.376 32.918ZM162.65 32.333C162.734 32.201 162.845 32.093 162.983 32.009C163.121 31.925 163.268 31.883 163.424 31.883H164.675L162.308 35.357C162.164 35.579 162.014 35.762 161.858 35.906C161.702 36.044 161.51 36.152 161.282 36.23C161.57 36.308 161.813 36.431 162.011 36.599C162.209 36.761 162.386 36.971 162.542 37.229L164.936 41H163.82C163.532 41 163.31 40.952 163.154 40.856C162.998 40.76 162.863 40.622 162.749 40.442L160.976 37.607C160.694 37.139 160.271 36.905 159.707 36.905H158.726V41.009H157.115V31.883H158.726V35.825H159.59C160.07 35.825 160.445 35.621 160.715 35.213L162.65 32.333ZM174.423 31.883V41H172.821V33.143H169.941C169.869 34.301 169.761 35.303 169.617 36.149C169.473 36.989 169.299 37.706 169.095 38.3C168.897 38.888 168.672 39.368 168.42 39.74C168.174 40.106 167.913 40.391 167.637 40.595C167.367 40.799 167.085 40.937 166.791 41.009C166.503 41.081 166.215 41.117 165.927 41.117C165.417 41.117 165.162 41.036 165.162 40.874V39.857H165.63C165.834 39.857 166.041 39.821 166.251 39.749C166.461 39.677 166.665 39.539 166.863 39.335C167.067 39.131 167.262 38.846 167.448 38.48C167.634 38.108 167.802 37.628 167.952 37.04C168.108 36.446 168.24 35.729 168.348 34.889C168.462 34.043 168.549 33.041 168.609 31.883H174.423ZM182.756 41C182.6 41 182.48 40.976 182.396 40.928C182.312 40.874 182.246 40.772 182.198 40.622L182.018 39.767C181.778 39.983 181.541 40.178 181.307 40.352C181.079 40.52 180.839 40.664 180.587 40.784C180.341 40.898 180.074 40.985 179.786 41.045C179.504 41.111 179.189 41.144 178.841 41.144C178.487 41.144 178.154 41.096 177.842 41C177.53 40.898 177.257 40.748 177.023 40.55C176.795 40.352 176.612 40.103 176.474 39.803C176.342 39.497 176.276 39.137 176.276 38.723C176.276 38.363 176.375 38.018 176.573 37.688C176.771 37.352 177.092 37.055 177.536 36.797C177.98 36.539 178.559 36.329 179.273 36.167C179.987 35.999 180.863 35.903 181.901 35.879V35.168C181.901 34.46 181.748 33.926 181.442 33.566C181.136 33.2 180.689 33.017 180.101 33.017C179.705 33.017 179.372 33.068 179.102 33.17C178.838 33.266 178.607 33.377 178.409 33.503C178.217 33.623 178.049 33.734 177.905 33.836C177.767 33.932 177.629 33.98 177.491 33.98C177.383 33.98 177.29 33.953 177.212 33.899C177.134 33.839 177.068 33.767 177.014 33.683L176.726 33.17C177.23 32.684 177.773 32.321 178.355 32.081C178.937 31.841 179.582 31.721 180.29 31.721C180.8 31.721 181.253 31.805 181.649 31.973C182.045 32.141 182.378 32.375 182.648 32.675C182.918 32.975 183.122 33.338 183.26 33.764C183.398 34.19 183.467 34.658 183.467 35.168V41H182.756ZM179.318 40.019C179.6 40.019 179.858 39.992 180.092 39.938C180.326 39.878 180.545 39.797 180.749 39.695C180.959 39.587 181.157 39.458 181.343 39.308C181.535 39.152 181.721 38.978 181.901 38.786V36.896C181.163 36.92 180.533 36.98 180.011 37.076C179.495 37.166 179.072 37.286 178.742 37.436C178.418 37.586 178.181 37.763 178.031 37.967C177.887 38.171 177.815 38.399 177.815 38.651C177.815 38.891 177.854 39.098 177.932 39.272C178.01 39.446 178.115 39.59 178.247 39.704C178.385 39.812 178.544 39.893 178.724 39.947C178.91 39.995 179.108 40.019 179.318 40.019ZM190.651 36.968C190.717 37.106 190.78 37.25 190.84 37.4C190.906 37.544 190.966 37.691 191.02 37.841C191.122 37.535 191.242 37.244 191.38 36.968L194.17 32.216C194.248 32.072 194.341 31.976 194.449 31.928C194.557 31.88 194.668 31.856 194.782 31.856H196.069V41H194.62V34.943C194.62 34.781 194.629 34.595 194.647 34.385C194.671 34.175 194.701 33.98 194.737 33.8L191.569 39.353C191.521 39.443 191.458 39.515 191.38 39.569C191.302 39.623 191.212 39.65 191.11 39.65H190.93C190.828 39.65 190.735 39.623 190.651 39.569C190.573 39.515 190.51 39.443 190.462 39.353L187.24 33.782C187.27 33.962 187.297 34.16 187.321 34.376C187.345 34.586 187.357 34.775 187.357 34.943V41H185.908V31.856H187.195C187.309 31.856 187.42 31.883 187.528 31.937C187.636 31.985 187.729 32.078 187.807 32.216L190.651 36.968ZM204.395 41C204.239 41 204.119 40.976 204.035 40.928C203.951 40.874 203.885 40.772 203.837 40.622L203.657 39.767C203.417 39.983 203.18 40.178 202.946 40.352C202.718 40.52 202.478 40.664 202.226 40.784C201.98 40.898 201.713 40.985 201.425 41.045C201.143 41.111 200.828 41.144 200.48 41.144C200.126 41.144 199.793 41.096 199.481 41C199.169 40.898 198.896 40.748 198.662 40.55C198.434 40.352 198.251 40.103 198.113 39.803C197.981 39.497 197.915 39.137 197.915 38.723C197.915 38.363 198.014 38.018 198.212 37.688C198.41 37.352 198.731 37.055 199.175 36.797C199.619 36.539 200.198 36.329 200.912 36.167C201.626 35.999 202.502 35.903 203.54 35.879V35.168C203.54 34.46 203.387 33.926 203.081 33.566C202.775 33.2 202.328 33.017 201.74 33.017C201.344 33.017 201.011 33.068 200.741 33.17C200.477 33.266 200.246 33.377 200.048 33.503C199.856 33.623 199.688 33.734 199.544 33.836C199.406 33.932 199.268 33.98 199.13 33.98C199.022 33.98 198.929 33.953 198.851 33.899C198.773 33.839 198.707 33.767 198.653 33.683L198.365 33.17C198.869 32.684 199.412 32.321 199.994 32.081C200.576 31.841 201.221 31.721 201.929 31.721C202.439 31.721 202.892 31.805 203.288 31.973C203.684 32.141 204.017 32.375 204.287 32.675C204.557 32.975 204.761 33.338 204.899 33.764C205.037 34.19 205.106 34.658 205.106 35.168V41H204.395ZM200.957 40.019C201.239 40.019 201.497 39.992 201.731 39.938C201.965 39.878 202.184 39.797 202.388 39.695C202.598 39.587 202.796 39.458 202.982 39.308C203.174 39.152 203.36 38.978 203.54 38.786V36.896C202.802 36.92 202.172 36.98 201.65 37.076C201.134 37.166 200.711 37.286 200.381 37.436C200.057 37.586 199.82 37.763 199.67 37.967C199.526 38.171 199.454 38.399 199.454 38.651C199.454 38.891 199.493 39.098 199.571 39.272C199.649 39.446 199.754 39.59 199.886 39.704C200.024 39.812 200.183 39.893 200.363 39.947C200.549 39.995 200.747 40.019 200.957 40.019Z" fill="white"/>
</svg>
