<svg width="473" height="629" viewBox="0 0 473 629" fill="none" xmlns="http://www.w3.org/2000/svg">
<rect width="473" height="629" fill="#828282"/>
<path d="M193.512 262.568V269H191.196V251.804H196.272C197.36 251.804 198.304 251.932 199.104 252.188C199.912 252.436 200.58 252.792 201.108 253.256C201.636 253.72 202.028 254.28 202.284 254.936C202.548 255.592 202.68 256.324 202.68 257.132C202.68 257.932 202.54 258.664 202.26 259.328C201.98 259.992 201.568 260.564 201.024 261.044C200.488 261.524 199.82 261.9 199.02 262.172C198.228 262.436 197.312 262.568 196.272 262.568H193.512ZM193.512 260.72H196.272C196.936 260.72 197.52 260.632 198.024 260.456C198.536 260.28 198.964 260.036 199.308 259.724C199.66 259.404 199.924 259.024 200.1 258.584C200.276 258.144 200.364 257.66 200.364 257.132C200.364 256.036 200.024 255.18 199.344 254.564C198.672 253.948 197.648 253.64 196.272 253.64H193.512V260.72ZM209.453 256.652C210.181 256.652 210.853 256.776 211.469 257.024C212.093 257.264 212.629 257.616 213.077 258.08C213.533 258.536 213.889 259.104 214.145 259.784C214.401 260.456 214.529 261.224 214.529 262.088C214.529 262.424 214.493 262.648 214.421 262.76C214.349 262.872 214.213 262.928 214.013 262.928H205.889C205.905 263.696 206.009 264.364 206.201 264.932C206.393 265.5 206.657 265.976 206.993 266.36C207.329 266.736 207.729 267.02 208.193 267.212C208.657 267.396 209.177 267.488 209.753 267.488C210.289 267.488 210.749 267.428 211.133 267.308C211.525 267.18 211.861 267.044 212.141 266.9C212.421 266.756 212.653 266.624 212.837 266.504C213.029 266.376 213.193 266.312 213.329 266.312C213.505 266.312 213.641 266.38 213.737 266.516L214.337 267.296C214.073 267.616 213.757 267.896 213.389 268.136C213.021 268.368 212.625 268.56 212.201 268.712C211.785 268.864 211.353 268.976 210.905 269.048C210.457 269.128 210.013 269.168 209.573 269.168C208.733 269.168 207.957 269.028 207.245 268.748C206.541 268.46 205.929 268.044 205.409 267.5C204.897 266.948 204.497 266.268 204.209 265.46C203.921 264.652 203.777 263.724 203.777 262.676C203.777 261.828 203.905 261.036 204.161 260.3C204.425 259.564 204.801 258.928 205.289 258.392C205.777 257.848 206.373 257.424 207.077 257.12C207.781 256.808 208.573 256.652 209.453 256.652ZM209.501 258.224C208.469 258.224 207.657 258.524 207.065 259.124C206.473 259.716 206.105 260.54 205.961 261.596H212.609C212.609 261.1 212.537 260.648 212.393 260.24C212.257 259.824 212.053 259.468 211.781 259.172C211.517 258.868 211.193 258.636 210.809 258.476C210.425 258.308 209.989 258.224 209.501 258.224ZM224.533 257.444C224.645 257.268 224.793 257.124 224.977 257.012C225.161 256.9 225.357 256.844 225.565 256.844H227.233L224.077 261.476C223.885 261.772 223.685 262.016 223.477 262.208C223.269 262.392 223.013 262.536 222.709 262.64C223.093 262.744 223.417 262.908 223.681 263.132C223.945 263.348 224.181 263.628 224.389 263.972L227.581 269H226.093C225.709 269 225.413 268.936 225.205 268.808C224.997 268.68 224.817 268.496 224.665 268.256L222.301 264.476C221.925 263.852 221.361 263.54 220.609 263.54H219.301V269.012H217.153V256.844H219.301V262.1H220.453C221.093 262.1 221.593 261.828 221.953 261.284L224.533 257.444ZM240.231 256.844V269H238.095V258.524H234.255C234.159 260.068 234.015 261.404 233.823 262.532C233.631 263.652 233.399 264.608 233.127 265.4C232.863 266.184 232.563 266.824 232.227 267.32C231.899 267.808 231.551 268.188 231.183 268.46C230.823 268.732 230.447 268.916 230.055 269.012C229.671 269.108 229.287 269.156 228.903 269.156C228.223 269.156 227.883 269.048 227.883 268.832V267.476H228.507C228.779 267.476 229.055 267.428 229.335 267.332C229.615 267.236 229.887 267.052 230.151 266.78C230.423 266.508 230.683 266.128 230.931 265.64C231.179 265.144 231.403 264.504 231.603 263.72C231.811 262.928 231.987 261.972 232.131 260.852C232.283 259.724 232.399 258.388 232.479 256.844H240.231ZM251.342 269C251.134 269 250.974 268.968 250.862 268.904C250.75 268.832 250.662 268.696 250.598 268.496L250.358 267.356C250.038 267.644 249.722 267.904 249.41 268.136C249.106 268.36 248.786 268.552 248.45 268.712C248.122 268.864 247.766 268.98 247.382 269.06C247.006 269.148 246.586 269.192 246.122 269.192C245.65 269.192 245.206 269.128 244.79 269C244.374 268.864 244.01 268.664 243.698 268.4C243.394 268.136 243.15 267.804 242.966 267.404C242.79 266.996 242.702 266.516 242.702 265.964C242.702 265.484 242.834 265.024 243.098 264.584C243.362 264.136 243.79 263.74 244.382 263.396C244.974 263.052 245.746 262.772 246.698 262.556C247.65 262.332 248.818 262.204 250.202 262.172V261.224C250.202 260.28 249.998 259.568 249.59 259.088C249.182 258.6 248.586 258.356 247.802 258.356C247.274 258.356 246.83 258.424 246.47 258.56C246.118 258.688 245.81 258.836 245.546 259.004C245.29 259.164 245.066 259.312 244.874 259.448C244.69 259.576 244.506 259.64 244.322 259.64C244.178 259.64 244.054 259.604 243.95 259.532C243.846 259.452 243.758 259.356 243.686 259.244L243.302 258.56C243.974 257.912 244.698 257.428 245.474 257.108C246.25 256.788 247.11 256.628 248.054 256.628C248.734 256.628 249.338 256.74 249.866 256.964C250.394 257.188 250.838 257.5 251.198 257.9C251.558 258.3 251.83 258.784 252.014 259.352C252.198 259.92 252.29 260.544 252.29 261.224V269H251.342ZM246.758 267.692C247.134 267.692 247.478 267.656 247.79 267.584C248.102 267.504 248.394 267.396 248.666 267.26C248.946 267.116 249.21 266.944 249.458 266.744C249.714 266.536 249.962 266.304 250.202 266.048V263.528C249.218 263.56 248.378 263.64 247.682 263.768C246.994 263.888 246.43 264.048 245.99 264.248C245.558 264.448 245.242 264.684 245.042 264.956C244.85 265.228 244.754 265.532 244.754 265.868C244.754 266.188 244.806 266.464 244.91 266.696C245.014 266.928 245.154 267.12 245.33 267.272C245.514 267.416 245.726 267.524 245.966 267.596C246.214 267.66 246.478 267.692 246.758 267.692ZM261.868 263.624C261.956 263.808 262.04 264 262.12 264.2C262.208 264.392 262.288 264.588 262.36 264.788C262.496 264.38 262.656 263.992 262.84 263.624L266.56 257.288C266.664 257.096 266.788 256.968 266.932 256.904C267.076 256.84 267.224 256.808 267.376 256.808H269.092V269H267.16V260.924C267.16 260.708 267.172 260.46 267.196 260.18C267.228 259.9 267.268 259.64 267.316 259.4L263.092 266.804C263.028 266.924 262.944 267.02 262.84 267.092C262.736 267.164 262.616 267.2 262.48 267.2H262.24C262.104 267.2 261.98 267.164 261.868 267.092C261.764 267.02 261.68 266.924 261.616 266.804L257.32 259.376C257.36 259.616 257.396 259.88 257.428 260.168C257.46 260.448 257.476 260.7 257.476 260.924V269H255.544V256.808H257.26C257.412 256.808 257.56 256.844 257.704 256.916C257.848 256.98 257.972 257.104 258.076 257.288L261.868 263.624ZM280.193 269C279.985 269 279.825 268.968 279.713 268.904C279.601 268.832 279.513 268.696 279.449 268.496L279.209 267.356C278.889 267.644 278.573 267.904 278.261 268.136C277.957 268.36 277.637 268.552 277.301 268.712C276.973 268.864 276.617 268.98 276.233 269.06C275.857 269.148 275.437 269.192 274.973 269.192C274.501 269.192 274.057 269.128 273.641 269C273.225 268.864 272.861 268.664 272.549 268.4C272.245 268.136 272.001 267.804 271.817 267.404C271.641 266.996 271.553 266.516 271.553 265.964C271.553 265.484 271.685 265.024 271.949 264.584C272.213 264.136 272.641 263.74 273.233 263.396C273.825 263.052 274.597 262.772 275.549 262.556C276.501 262.332 277.669 262.204 279.053 262.172V261.224C279.053 260.28 278.849 259.568 278.441 259.088C278.033 258.6 277.437 258.356 276.653 258.356C276.125 258.356 275.681 258.424 275.321 258.56C274.969 258.688 274.661 258.836 274.397 259.004C274.141 259.164 273.917 259.312 273.725 259.448C273.541 259.576 273.357 259.64 273.173 259.64C273.029 259.64 272.905 259.604 272.801 259.532C272.697 259.452 272.609 259.356 272.537 259.244L272.153 258.56C272.825 257.912 273.549 257.428 274.325 257.108C275.101 256.788 275.961 256.628 276.905 256.628C277.585 256.628 278.189 256.74 278.717 256.964C279.245 257.188 279.689 257.5 280.049 257.9C280.409 258.3 280.681 258.784 280.865 259.352C281.049 259.92 281.141 260.544 281.141 261.224V269H280.193ZM275.609 267.692C275.985 267.692 276.329 267.656 276.641 267.584C276.953 267.504 277.245 267.396 277.517 267.26C277.797 267.116 278.061 266.944 278.309 266.744C278.565 266.536 278.813 266.304 279.053 266.048V263.528C278.069 263.56 277.229 263.64 276.533 263.768C275.845 263.888 275.281 264.048 274.841 264.248C274.409 264.448 274.093 264.684 273.893 264.956C273.701 265.228 273.605 265.532 273.605 265.868C273.605 266.188 273.657 266.464 273.761 266.696C273.865 266.928 274.005 267.12 274.181 267.272C274.365 267.416 274.577 267.524 274.817 267.596C275.065 267.66 275.329 267.692 275.609 267.692Z" fill="white"/>
</svg>
