<svg width="1520" height="300" viewBox="0 0 1520 300" fill="none" xmlns="http://www.w3.org/2000/svg">
<rect width="1520" height="300" fill="#8D8D8D"/>
<path d="M717.512 143.568V150H715.196V132.804H720.272C721.36 132.804 722.304 132.932 723.104 133.188C723.912 133.436 724.58 133.792 725.108 134.256C725.636 134.72 726.028 135.28 726.284 135.936C726.548 136.592 726.68 137.324 726.68 138.132C726.68 138.932 726.54 139.664 726.26 140.328C725.98 140.992 725.568 141.564 725.024 142.044C724.488 142.524 723.82 142.9 723.02 143.172C722.228 143.436 721.312 143.568 720.272 143.568H717.512ZM717.512 141.72H720.272C720.936 141.72 721.52 141.632 722.024 141.456C722.536 141.28 722.964 141.036 723.308 140.724C723.66 140.404 723.924 140.024 724.1 139.584C724.276 139.144 724.364 138.66 724.364 138.132C724.364 137.036 724.024 136.18 723.344 135.564C722.672 134.948 721.648 134.64 720.272 134.64H717.512V141.72ZM733.453 137.652C734.181 137.652 734.853 137.776 735.469 138.024C736.093 138.264 736.629 138.616 737.077 139.08C737.533 139.536 737.889 140.104 738.145 140.784C738.401 141.456 738.529 142.224 738.529 143.088C738.529 143.424 738.493 143.648 738.421 143.76C738.349 143.872 738.213 143.928 738.013 143.928H729.889C729.905 144.696 730.009 145.364 730.201 145.932C730.393 146.5 730.657 146.976 730.993 147.36C731.329 147.736 731.729 148.02 732.193 148.212C732.657 148.396 733.177 148.488 733.753 148.488C734.289 148.488 734.749 148.428 735.133 148.308C735.525 148.18 735.861 148.044 736.141 147.9C736.421 147.756 736.653 147.624 736.837 147.504C737.029 147.376 737.193 147.312 737.329 147.312C737.505 147.312 737.641 147.38 737.737 147.516L738.337 148.296C738.073 148.616 737.757 148.896 737.389 149.136C737.021 149.368 736.625 149.56 736.201 149.712C735.785 149.864 735.353 149.976 734.905 150.048C734.457 150.128 734.013 150.168 733.573 150.168C732.733 150.168 731.957 150.028 731.245 149.748C730.541 149.46 729.929 149.044 729.409 148.5C728.897 147.948 728.497 147.268 728.209 146.46C727.921 145.652 727.777 144.724 727.777 143.676C727.777 142.828 727.905 142.036 728.161 141.3C728.425 140.564 728.801 139.928 729.289 139.392C729.777 138.848 730.373 138.424 731.077 138.12C731.781 137.808 732.573 137.652 733.453 137.652ZM733.501 139.224C732.469 139.224 731.657 139.524 731.065 140.124C730.473 140.716 730.105 141.54 729.961 142.596H736.609C736.609 142.1 736.537 141.648 736.393 141.24C736.257 140.824 736.053 140.468 735.781 140.172C735.517 139.868 735.193 139.636 734.809 139.476C734.425 139.308 733.989 139.224 733.501 139.224ZM748.533 138.444C748.645 138.268 748.793 138.124 748.977 138.012C749.161 137.9 749.357 137.844 749.565 137.844H751.233L748.077 142.476C747.885 142.772 747.685 143.016 747.477 143.208C747.269 143.392 747.013 143.536 746.709 143.64C747.093 143.744 747.417 143.908 747.681 144.132C747.945 144.348 748.181 144.628 748.389 144.972L751.581 150H750.093C749.709 150 749.413 149.936 749.205 149.808C748.997 149.68 748.817 149.496 748.665 149.256L746.301 145.476C745.925 144.852 745.361 144.54 744.609 144.54H743.301V150.012H741.153V137.844H743.301V143.1H744.453C745.093 143.1 745.593 142.828 745.953 142.284L748.533 138.444ZM764.231 137.844V150H762.095V139.524H758.255C758.159 141.068 758.015 142.404 757.823 143.532C757.631 144.652 757.399 145.608 757.127 146.4C756.863 147.184 756.563 147.824 756.227 148.32C755.899 148.808 755.551 149.188 755.183 149.46C754.823 149.732 754.447 149.916 754.055 150.012C753.671 150.108 753.287 150.156 752.903 150.156C752.223 150.156 751.883 150.048 751.883 149.832V148.476H752.507C752.779 148.476 753.055 148.428 753.335 148.332C753.615 148.236 753.887 148.052 754.151 147.78C754.423 147.508 754.683 147.128 754.931 146.64C755.179 146.144 755.403 145.504 755.603 144.72C755.811 143.928 755.987 142.972 756.131 141.852C756.283 140.724 756.399 139.388 756.479 137.844H764.231ZM775.342 150C775.134 150 774.974 149.968 774.862 149.904C774.75 149.832 774.662 149.696 774.598 149.496L774.358 148.356C774.038 148.644 773.722 148.904 773.41 149.136C773.106 149.36 772.786 149.552 772.45 149.712C772.122 149.864 771.766 149.98 771.382 150.06C771.006 150.148 770.586 150.192 770.122 150.192C769.65 150.192 769.206 150.128 768.79 150C768.374 149.864 768.01 149.664 767.698 149.4C767.394 149.136 767.15 148.804 766.966 148.404C766.79 147.996 766.702 147.516 766.702 146.964C766.702 146.484 766.834 146.024 767.098 145.584C767.362 145.136 767.79 144.74 768.382 144.396C768.974 144.052 769.746 143.772 770.698 143.556C771.65 143.332 772.818 143.204 774.202 143.172V142.224C774.202 141.28 773.998 140.568 773.59 140.088C773.182 139.6 772.586 139.356 771.802 139.356C771.274 139.356 770.83 139.424 770.47 139.56C770.118 139.688 769.81 139.836 769.546 140.004C769.29 140.164 769.066 140.312 768.874 140.448C768.69 140.576 768.506 140.64 768.322 140.64C768.178 140.64 768.054 140.604 767.95 140.532C767.846 140.452 767.758 140.356 767.686 140.244L767.302 139.56C767.974 138.912 768.698 138.428 769.474 138.108C770.25 137.788 771.11 137.628 772.054 137.628C772.734 137.628 773.338 137.74 773.866 137.964C774.394 138.188 774.838 138.5 775.198 138.9C775.558 139.3 775.83 139.784 776.014 140.352C776.198 140.92 776.29 141.544 776.29 142.224V150H775.342ZM770.758 148.692C771.134 148.692 771.478 148.656 771.79 148.584C772.102 148.504 772.394 148.396 772.666 148.26C772.946 148.116 773.21 147.944 773.458 147.744C773.714 147.536 773.962 147.304 774.202 147.048V144.528C773.218 144.56 772.378 144.64 771.682 144.768C770.994 144.888 770.43 145.048 769.99 145.248C769.558 145.448 769.242 145.684 769.042 145.956C768.85 146.228 768.754 146.532 768.754 146.868C768.754 147.188 768.806 147.464 768.91 147.696C769.014 147.928 769.154 148.12 769.33 148.272C769.514 148.416 769.726 148.524 769.966 148.596C770.214 148.66 770.478 148.692 770.758 148.692ZM785.868 144.624C785.956 144.808 786.04 145 786.12 145.2C786.208 145.392 786.288 145.588 786.36 145.788C786.496 145.38 786.656 144.992 786.84 144.624L790.56 138.288C790.664 138.096 790.788 137.968 790.932 137.904C791.076 137.84 791.224 137.808 791.376 137.808H793.092V150H791.16V141.924C791.16 141.708 791.172 141.46 791.196 141.18C791.228 140.9 791.268 140.64 791.316 140.4L787.092 147.804C787.028 147.924 786.944 148.02 786.84 148.092C786.736 148.164 786.616 148.2 786.48 148.2H786.24C786.104 148.2 785.98 148.164 785.868 148.092C785.764 148.02 785.68 147.924 785.616 147.804L781.32 140.376C781.36 140.616 781.396 140.88 781.428 141.168C781.46 141.448 781.476 141.7 781.476 141.924V150H779.544V137.808H781.26C781.412 137.808 781.56 137.844 781.704 137.916C781.848 137.98 781.972 138.104 782.076 138.288L785.868 144.624ZM804.193 150C803.985 150 803.825 149.968 803.713 149.904C803.601 149.832 803.513 149.696 803.449 149.496L803.209 148.356C802.889 148.644 802.573 148.904 802.261 149.136C801.957 149.36 801.637 149.552 801.301 149.712C800.973 149.864 800.617 149.98 800.233 150.06C799.857 150.148 799.437 150.192 798.973 150.192C798.501 150.192 798.057 150.128 797.641 150C797.225 149.864 796.861 149.664 796.549 149.4C796.245 149.136 796.001 148.804 795.817 148.404C795.641 147.996 795.553 147.516 795.553 146.964C795.553 146.484 795.685 146.024 795.949 145.584C796.213 145.136 796.641 144.74 797.233 144.396C797.825 144.052 798.597 143.772 799.549 143.556C800.501 143.332 801.669 143.204 803.053 143.172V142.224C803.053 141.28 802.849 140.568 802.441 140.088C802.033 139.6 801.437 139.356 800.653 139.356C800.125 139.356 799.681 139.424 799.321 139.56C798.969 139.688 798.661 139.836 798.397 140.004C798.141 140.164 797.917 140.312 797.725 140.448C797.541 140.576 797.357 140.64 797.173 140.64C797.029 140.64 796.905 140.604 796.801 140.532C796.697 140.452 796.609 140.356 796.537 140.244L796.153 139.56C796.825 138.912 797.549 138.428 798.325 138.108C799.101 137.788 799.961 137.628 800.905 137.628C801.585 137.628 802.189 137.74 802.717 137.964C803.245 138.188 803.689 138.5 804.049 138.9C804.409 139.3 804.681 139.784 804.865 140.352C805.049 140.92 805.141 141.544 805.141 142.224V150H804.193ZM799.609 148.692C799.985 148.692 800.329 148.656 800.641 148.584C800.953 148.504 801.245 148.396 801.517 148.26C801.797 148.116 802.061 147.944 802.309 147.744C802.565 147.536 802.813 147.304 803.053 147.048V144.528C802.069 144.56 801.229 144.64 800.533 144.768C799.845 144.888 799.281 145.048 798.841 145.248C798.409 145.448 798.093 145.684 797.893 145.956C797.701 146.228 797.605 146.532 797.605 146.868C797.605 147.188 797.657 147.464 797.761 147.696C797.865 147.928 798.005 148.12 798.181 148.272C798.365 148.416 798.577 148.524 798.817 148.596C799.065 148.66 799.329 148.692 799.609 148.692Z" fill="white"/>
</svg>
