<svg width="240" height="400" viewBox="0 0 240 400" fill="none" xmlns="http://www.w3.org/2000/svg">
<rect width="240" height="400" fill="#C4C4C4"/>
<path d="M73.696 213.137C74.502 213.137 75.2473 213.258 75.932 213.501C76.6167 213.735 77.2103 214.077 77.713 214.528C78.2157 214.97 78.61 215.516 78.896 216.166C79.182 216.807 79.325 217.535 79.325 218.35C79.325 219.043 79.221 219.689 79.013 220.287C78.8137 220.876 78.5363 221.44 78.181 221.977C77.8343 222.514 77.427 223.039 76.959 223.55C76.4997 224.061 76.01 224.577 75.49 225.097L70.693 229.985C71.0483 229.89 71.408 229.812 71.772 229.751C72.136 229.69 72.4827 229.66 72.812 229.66H78.818C79.0867 229.66 79.299 229.738 79.455 229.894C79.611 230.05 79.689 230.254 79.689 230.505V232H67.183V231.155C67.183 230.982 67.2177 230.804 67.287 230.622C67.365 230.431 67.482 230.262 67.638 230.115L73.553 224.161C74.047 223.658 74.4933 223.177 74.892 222.718C75.2907 222.259 75.633 221.799 75.919 221.34C76.205 220.881 76.4217 220.417 76.569 219.949C76.725 219.472 76.803 218.965 76.803 218.428C76.803 217.899 76.7207 217.436 76.556 217.037C76.3913 216.638 76.1617 216.305 75.867 216.036C75.581 215.767 75.2387 215.568 74.84 215.438C74.4413 215.308 74.0123 215.243 73.553 215.243C73.0937 215.243 72.6733 215.312 72.292 215.451C71.9107 215.581 71.5683 215.767 71.265 216.01C70.9703 216.244 70.719 216.526 70.511 216.855C70.3117 217.176 70.1687 217.531 70.082 217.921C69.9693 218.242 69.8177 218.458 69.627 218.571C69.445 218.675 69.185 218.701 68.847 218.649L67.547 218.415C67.677 217.557 67.9153 216.799 68.262 216.14C68.6173 215.481 69.0637 214.931 69.601 214.489C70.1383 214.038 70.7537 213.7 71.447 213.475C72.1403 213.25 72.89 213.137 73.696 213.137ZM92.691 225.214H95.434V226.644C95.434 226.791 95.3864 226.917 95.291 227.021C95.2044 227.116 95.0744 227.164 94.901 227.164H92.691V232H90.533V227.164H82.317C82.135 227.164 81.979 227.112 81.849 227.008C81.719 226.904 81.6367 226.77 81.602 226.605L81.355 225.344L90.39 213.332H92.691V225.214ZM90.533 217.804C90.533 217.57 90.5417 217.314 90.559 217.037C90.5764 216.76 90.6067 216.474 90.65 216.179L84.02 225.214H90.533V217.804ZM110.49 222.666C110.49 224.295 110.312 225.708 109.957 226.904C109.61 228.1 109.129 229.092 108.514 229.881C107.907 230.661 107.188 231.242 106.356 231.623C105.533 232.004 104.644 232.195 103.691 232.195C102.738 232.195 101.849 232.004 101.026 231.623C100.203 231.242 99.4834 230.661 98.8681 229.881C98.2614 229.092 97.7847 228.1 97.4381 226.904C97.0914 225.708 96.9181 224.295 96.9181 222.666C96.9181 221.037 97.0914 219.624 97.4381 218.428C97.7847 217.232 98.2614 216.244 98.8681 215.464C99.4834 214.675 100.203 214.09 101.026 213.709C101.849 213.328 102.738 213.137 103.691 213.137C104.644 213.137 105.533 213.328 106.356 213.709C107.188 214.09 107.907 214.675 108.514 215.464C109.129 216.244 109.61 217.232 109.957 218.428C110.312 219.624 110.49 221.037 110.49 222.666ZM107.929 222.666C107.929 221.262 107.812 220.083 107.578 219.13C107.344 218.177 107.032 217.41 106.642 216.829C106.252 216.248 105.801 215.837 105.29 215.594C104.779 215.343 104.246 215.217 103.691 215.217C103.136 215.217 102.603 215.343 102.092 215.594C101.581 215.837 101.13 216.248 100.74 216.829C100.35 217.41 100.038 218.177 99.8041 219.13C99.5787 220.083 99.4661 221.262 99.4661 222.666C99.4661 224.079 99.5787 225.262 99.8041 226.215C100.038 227.168 100.35 227.935 100.74 228.516C101.13 229.088 101.581 229.5 102.092 229.751C102.603 229.994 103.136 230.115 103.691 230.115C104.246 230.115 104.779 229.994 105.29 229.751C105.801 229.5 106.252 229.088 106.642 228.516C107.032 227.935 107.344 227.168 107.578 226.215C107.812 225.262 107.929 224.079 107.929 222.666ZM117.85 222.406L111.727 213.345H114.405C114.596 213.345 114.734 213.375 114.821 213.436C114.916 213.497 114.999 213.588 115.068 213.709L119.826 221.08C119.869 220.976 119.908 220.876 119.943 220.781C119.986 220.677 120.043 220.569 120.112 220.456L124.584 213.748C124.749 213.479 124.952 213.345 125.195 213.345H127.769L121.607 222.302L127.964 232H125.299C125.1 232 124.944 231.948 124.831 231.844C124.718 231.74 124.627 231.623 124.558 231.493L119.67 223.784C119.644 223.879 119.609 223.975 119.566 224.07C119.523 224.165 119.479 224.252 119.436 224.33L114.678 231.493C114.591 231.614 114.492 231.731 114.379 231.844C114.275 231.948 114.136 232 113.963 232H111.467L117.85 222.406ZM139.816 225.214H142.559V226.644C142.559 226.791 142.511 226.917 142.416 227.021C142.329 227.116 142.199 227.164 142.026 227.164H139.816V232H137.658V227.164H129.442C129.26 227.164 129.104 227.112 128.974 227.008C128.844 226.904 128.762 226.77 128.727 226.605L128.48 225.344L137.515 213.332H139.816V225.214ZM137.658 217.804C137.658 217.57 137.667 217.314 137.684 217.037C137.701 216.76 137.732 216.474 137.775 216.179L131.145 225.214H137.658V217.804ZM157.615 222.666C157.615 224.295 157.437 225.708 157.082 226.904C156.735 228.1 156.254 229.092 155.639 229.881C155.032 230.661 154.313 231.242 153.481 231.623C152.658 232.004 151.769 232.195 150.816 232.195C149.863 232.195 148.974 232.004 148.151 231.623C147.328 231.242 146.608 230.661 145.993 229.881C145.386 229.092 144.91 228.1 144.563 226.904C144.216 225.708 144.043 224.295 144.043 222.666C144.043 221.037 144.216 219.624 144.563 218.428C144.91 217.232 145.386 216.244 145.993 215.464C146.608 214.675 147.328 214.09 148.151 213.709C148.974 213.328 149.863 213.137 150.816 213.137C151.769 213.137 152.658 213.328 153.481 213.709C154.313 214.09 155.032 214.675 155.639 215.464C156.254 216.244 156.735 217.232 157.082 218.428C157.437 219.624 157.615 221.037 157.615 222.666ZM155.054 222.666C155.054 221.262 154.937 220.083 154.703 219.13C154.469 218.177 154.157 217.41 153.767 216.829C153.377 216.248 152.926 215.837 152.415 215.594C151.904 215.343 151.371 215.217 150.816 215.217C150.261 215.217 149.728 215.343 149.217 215.594C148.706 215.837 148.255 216.248 147.865 216.829C147.475 217.41 147.163 218.177 146.929 219.13C146.704 220.083 146.591 221.262 146.591 222.666C146.591 224.079 146.704 225.262 146.929 226.215C147.163 227.168 147.475 227.935 147.865 228.516C148.255 229.088 148.706 229.5 149.217 229.751C149.728 229.994 150.261 230.115 150.816 230.115C151.371 230.115 151.904 229.994 152.415 229.751C152.926 229.5 153.377 229.088 153.767 228.516C154.157 227.935 154.469 227.168 154.703 226.215C154.937 225.262 155.054 224.079 155.054 222.666ZM172.697 222.666C172.697 224.295 172.519 225.708 172.164 226.904C171.817 228.1 171.336 229.092 170.721 229.881C170.114 230.661 169.395 231.242 168.563 231.623C167.74 232.004 166.851 232.195 165.898 232.195C164.945 232.195 164.056 232.004 163.233 231.623C162.41 231.242 161.69 230.661 161.075 229.881C160.468 229.092 159.992 228.1 159.645 226.904C159.298 225.708 159.125 224.295 159.125 222.666C159.125 221.037 159.298 219.624 159.645 218.428C159.992 217.232 160.468 216.244 161.075 215.464C161.69 214.675 162.41 214.09 163.233 213.709C164.056 213.328 164.945 213.137 165.898 213.137C166.851 213.137 167.74 213.328 168.563 213.709C169.395 214.09 170.114 214.675 170.721 215.464C171.336 216.244 171.817 217.232 172.164 218.428C172.519 219.624 172.697 221.037 172.697 222.666ZM170.136 222.666C170.136 221.262 170.019 220.083 169.785 219.13C169.551 218.177 169.239 217.41 168.849 216.829C168.459 216.248 168.008 215.837 167.497 215.594C166.986 215.343 166.453 215.217 165.898 215.217C165.343 215.217 164.81 215.343 164.299 215.594C163.788 215.837 163.337 216.248 162.947 216.829C162.557 217.41 162.245 218.177 162.011 219.13C161.786 220.083 161.673 221.262 161.673 222.666C161.673 224.079 161.786 225.262 162.011 226.215C162.245 227.168 162.557 227.935 162.947 228.516C163.337 229.088 163.788 229.5 164.299 229.751C164.81 229.994 165.343 230.115 165.898 230.115C166.453 230.115 166.986 229.994 167.497 229.751C168.008 229.5 168.459 229.088 168.849 228.516C169.239 227.935 169.551 227.168 169.785 226.215C170.019 225.262 170.136 224.079 170.136 222.666Z" fill="black"/>
<path d="M77.512 174.568V181H75.196V163.804H80.272C81.36 163.804 82.304 163.932 83.104 164.188C83.912 164.436 84.58 164.792 85.108 165.256C85.636 165.72 86.028 166.28 86.284 166.936C86.548 167.592 86.68 168.324 86.68 169.132C86.68 169.932 86.54 170.664 86.26 171.328C85.98 171.992 85.568 172.564 85.024 173.044C84.488 173.524 83.82 173.9 83.02 174.172C82.228 174.436 81.312 174.568 80.272 174.568H77.512ZM77.512 172.72H80.272C80.936 172.72 81.52 172.632 82.024 172.456C82.536 172.28 82.964 172.036 83.308 171.724C83.66 171.404 83.924 171.024 84.1 170.584C84.276 170.144 84.364 169.66 84.364 169.132C84.364 168.036 84.024 167.18 83.344 166.564C82.672 165.948 81.648 165.64 80.272 165.64H77.512V172.72ZM93.4533 168.652C94.1813 168.652 94.8533 168.776 95.4693 169.024C96.0933 169.264 96.6293 169.616 97.0773 170.08C97.5333 170.536 97.8893 171.104 98.1453 171.784C98.4013 172.456 98.5293 173.224 98.5293 174.088C98.5293 174.424 98.4933 174.648 98.4213 174.76C98.3493 174.872 98.2133 174.928 98.0133 174.928H89.8893C89.9053 175.696 90.0093 176.364 90.2013 176.932C90.3933 177.5 90.6573 177.976 90.9933 178.36C91.3293 178.736 91.7293 179.02 92.1933 179.212C92.6573 179.396 93.1773 179.488 93.7533 179.488C94.2893 179.488 94.7493 179.428 95.1333 179.308C95.5253 179.18 95.8613 179.044 96.1413 178.9C96.4213 178.756 96.6533 178.624 96.8373 178.504C97.0293 178.376 97.1933 178.312 97.3293 178.312C97.5053 178.312 97.6413 178.38 97.7373 178.516L98.3373 179.296C98.0733 179.616 97.7573 179.896 97.3893 180.136C97.0213 180.368 96.6253 180.56 96.2013 180.712C95.7853 180.864 95.3533 180.976 94.9053 181.048C94.4573 181.128 94.0133 181.168 93.5733 181.168C92.7333 181.168 91.9573 181.028 91.2453 180.748C90.5413 180.46 89.9293 180.044 89.4093 179.5C88.8973 178.948 88.4973 178.268 88.2093 177.46C87.9213 176.652 87.7773 175.724 87.7773 174.676C87.7773 173.828 87.9053 173.036 88.1613 172.3C88.4253 171.564 88.8013 170.928 89.2893 170.392C89.7773 169.848 90.3733 169.424 91.0773 169.12C91.7813 168.808 92.5733 168.652 93.4533 168.652ZM93.5013 170.224C92.4693 170.224 91.6573 170.524 91.0653 171.124C90.4733 171.716 90.1053 172.54 89.9613 173.596H96.6093C96.6093 173.1 96.5373 172.648 96.3933 172.24C96.2573 171.824 96.0533 171.468 95.7813 171.172C95.5173 170.868 95.1933 170.636 94.8093 170.476C94.4253 170.308 93.9893 170.224 93.5013 170.224ZM108.533 169.444C108.645 169.268 108.793 169.124 108.977 169.012C109.161 168.9 109.357 168.844 109.565 168.844H111.233L108.077 173.476C107.885 173.772 107.685 174.016 107.477 174.208C107.269 174.392 107.013 174.536 106.709 174.64C107.093 174.744 107.417 174.908 107.681 175.132C107.945 175.348 108.181 175.628 108.389 175.972L111.581 181H110.093C109.709 181 109.413 180.936 109.205 180.808C108.997 180.68 108.817 180.496 108.665 180.256L106.301 176.476C105.925 175.852 105.361 175.54 104.609 175.54H103.301V181.012H101.153V168.844H103.301V174.1H104.453C105.093 174.1 105.593 173.828 105.953 173.284L108.533 169.444ZM124.231 168.844V181H122.095V170.524H118.255C118.159 172.068 118.015 173.404 117.823 174.532C117.631 175.652 117.399 176.608 117.127 177.4C116.863 178.184 116.563 178.824 116.227 179.32C115.899 179.808 115.551 180.188 115.183 180.46C114.823 180.732 114.447 180.916 114.055 181.012C113.671 181.108 113.287 181.156 112.903 181.156C112.223 181.156 111.883 181.048 111.883 180.832V179.476H112.507C112.779 179.476 113.055 179.428 113.335 179.332C113.615 179.236 113.887 179.052 114.151 178.78C114.423 178.508 114.683 178.128 114.931 177.64C115.179 177.144 115.403 176.504 115.603 175.72C115.811 174.928 115.987 173.972 116.131 172.852C116.283 171.724 116.399 170.388 116.479 168.844H124.231ZM135.342 181C135.134 181 134.974 180.968 134.862 180.904C134.75 180.832 134.662 180.696 134.598 180.496L134.358 179.356C134.038 179.644 133.722 179.904 133.41 180.136C133.106 180.36 132.786 180.552 132.45 180.712C132.122 180.864 131.766 180.98 131.382 181.06C131.006 181.148 130.586 181.192 130.122 181.192C129.65 181.192 129.206 181.128 128.79 181C128.374 180.864 128.01 180.664 127.698 180.4C127.394 180.136 127.15 179.804 126.966 179.404C126.79 178.996 126.702 178.516 126.702 177.964C126.702 177.484 126.834 177.024 127.098 176.584C127.362 176.136 127.79 175.74 128.382 175.396C128.974 175.052 129.746 174.772 130.698 174.556C131.65 174.332 132.818 174.204 134.202 174.172V173.224C134.202 172.28 133.998 171.568 133.59 171.088C133.182 170.6 132.586 170.356 131.802 170.356C131.274 170.356 130.83 170.424 130.47 170.56C130.118 170.688 129.81 170.836 129.546 171.004C129.29 171.164 129.066 171.312 128.874 171.448C128.69 171.576 128.506 171.64 128.322 171.64C128.178 171.64 128.054 171.604 127.95 171.532C127.846 171.452 127.758 171.356 127.686 171.244L127.302 170.56C127.974 169.912 128.698 169.428 129.474 169.108C130.25 168.788 131.11 168.628 132.054 168.628C132.734 168.628 133.338 168.74 133.866 168.964C134.394 169.188 134.838 169.5 135.198 169.9C135.558 170.3 135.83 170.784 136.014 171.352C136.198 171.92 136.29 172.544 136.29 173.224V181H135.342ZM130.758 179.692C131.134 179.692 131.478 179.656 131.79 179.584C132.102 179.504 132.394 179.396 132.666 179.26C132.946 179.116 133.21 178.944 133.458 178.744C133.714 178.536 133.962 178.304 134.202 178.048V175.528C133.218 175.56 132.378 175.64 131.682 175.768C130.994 175.888 130.43 176.048 129.99 176.248C129.558 176.448 129.242 176.684 129.042 176.956C128.85 177.228 128.754 177.532 128.754 177.868C128.754 178.188 128.806 178.464 128.91 178.696C129.014 178.928 129.154 179.12 129.33 179.272C129.514 179.416 129.726 179.524 129.966 179.596C130.214 179.66 130.478 179.692 130.758 179.692ZM145.868 175.624C145.956 175.808 146.04 176 146.12 176.2C146.208 176.392 146.288 176.588 146.36 176.788C146.496 176.38 146.656 175.992 146.84 175.624L150.56 169.288C150.664 169.096 150.788 168.968 150.932 168.904C151.076 168.84 151.224 168.808 151.376 168.808H153.092V181H151.16V172.924C151.16 172.708 151.172 172.46 151.196 172.18C151.228 171.9 151.268 171.64 151.316 171.4L147.092 178.804C147.028 178.924 146.944 179.02 146.84 179.092C146.736 179.164 146.616 179.2 146.48 179.2H146.24C146.104 179.2 145.98 179.164 145.868 179.092C145.764 179.02 145.68 178.924 145.616 178.804L141.32 171.376C141.36 171.616 141.396 171.88 141.428 172.168C141.46 172.448 141.476 172.7 141.476 172.924V181H139.544V168.808H141.26C141.412 168.808 141.56 168.844 141.704 168.916C141.848 168.98 141.972 169.104 142.076 169.288L145.868 175.624ZM164.193 181C163.985 181 163.825 180.968 163.713 180.904C163.601 180.832 163.513 180.696 163.449 180.496L163.209 179.356C162.889 179.644 162.573 179.904 162.261 180.136C161.957 180.36 161.637 180.552 161.301 180.712C160.973 180.864 160.617 180.98 160.233 181.06C159.857 181.148 159.437 181.192 158.973 181.192C158.501 181.192 158.057 181.128 157.641 181C157.225 180.864 156.861 180.664 156.549 180.4C156.245 180.136 156.001 179.804 155.817 179.404C155.641 178.996 155.553 178.516 155.553 177.964C155.553 177.484 155.685 177.024 155.949 176.584C156.213 176.136 156.641 175.74 157.233 175.396C157.825 175.052 158.597 174.772 159.549 174.556C160.501 174.332 161.669 174.204 163.053 174.172V173.224C163.053 172.28 162.849 171.568 162.441 171.088C162.033 170.6 161.437 170.356 160.653 170.356C160.125 170.356 159.681 170.424 159.321 170.56C158.969 170.688 158.661 170.836 158.397 171.004C158.141 171.164 157.917 171.312 157.725 171.448C157.541 171.576 157.357 171.64 157.173 171.64C157.029 171.64 156.905 171.604 156.801 171.532C156.697 171.452 156.609 171.356 156.537 171.244L156.153 170.56C156.825 169.912 157.549 169.428 158.325 169.108C159.101 168.788 159.961 168.628 160.905 168.628C161.585 168.628 162.189 168.74 162.717 168.964C163.245 169.188 163.689 169.5 164.049 169.9C164.409 170.3 164.681 170.784 164.865 171.352C165.049 171.92 165.141 172.544 165.141 173.224V181H164.193ZM159.609 179.692C159.985 179.692 160.329 179.656 160.641 179.584C160.953 179.504 161.245 179.396 161.517 179.26C161.797 179.116 162.061 178.944 162.309 178.744C162.565 178.536 162.813 178.304 163.053 178.048V175.528C162.069 175.56 161.229 175.64 160.533 175.768C159.845 175.888 159.281 176.048 158.841 176.248C158.409 176.448 158.093 176.684 157.893 176.956C157.701 177.228 157.605 177.532 157.605 177.868C157.605 178.188 157.657 178.464 157.761 178.696C157.865 178.928 158.005 179.12 158.181 179.272C158.365 179.416 158.577 179.524 158.817 179.596C159.065 179.66 159.329 179.692 159.609 179.692Z" fill="black"/>
</svg>
