<svg width="111" height="20" viewBox="0 0 111 20" fill="none" xmlns="http://www.w3.org/2000/svg">
<path d="M110.857 9.86328H98.6388C96.0927 9.86328 95.2911 10.1082 94.7658 11.7136L92.4419 18.5503H89.8823L89.3906 19.9993H109.726L110.204 18.5503H107.874L110.857 9.86328ZM104.917 18.5503H101.414H95.4124L97.5342 12.3055C97.7295 11.6932 98.3222 11.217 99.1305 11.217H101.414H107.402L104.917 18.5503Z" fill="black"/>
<path d="M88.4995 9.86328L87.0379 14.0946H77.5135L78.9954 9.86328H76.0182L72.5156 19.9993H75.5265L77.0555 15.4687H86.5462L85.0104 19.9993H87.9809L91.4633 9.86328H88.4995Z" fill="black"/>
<path d="M72.6918 10.9254C72.3011 10.252 71.3177 9.85742 70.5633 9.85742H58.1089L57.6172 11.2452H69.2835C69.7348 11.2452 70.0109 11.5105 69.883 11.9459L69.1892 13.8914H59.9343C57.4151 13.8914 56.5866 14.2112 56.041 15.803L54.6602 19.9935H66.8653C69.4115 19.9935 70.213 19.6737 70.7653 18.0479L72.6985 12.2996L72.7726 12.0411C72.9208 11.6193 72.8602 11.252 72.6918 10.9254ZM67.97 17.4901C67.7679 18.0955 67.256 18.5513 66.5151 18.5513H58.9104C58.4928 18.5513 58.1762 18.2928 58.3648 17.8506L58.9508 16.1363C59.2 15.6397 59.7322 15.3064 60.4192 15.3064H68.7311L67.97 17.4901Z" fill="black"/>
<path d="M43.7749 9.86329C42.1045 9.86329 40.5216 9.84288 39.8749 11.7612L37.1133 19.9993H40.077L41.4578 15.9041H50.6791C53.205 15.9041 54.0335 15.6116 54.5656 13.9925L55.9397 9.86329H43.7749ZM51.7703 13.4143C51.5547 14.0197 51.0024 14.4891 50.2008 14.4891H41.9428L42.6501 12.3463C42.8656 11.7068 43.4382 11.2442 44.2666 11.2442H52.5112L51.7703 13.4143Z" fill="black"/>
<path d="M38.8703 9.86328H26.6382C24.1325 9.86328 23.2906 10.1218 22.7584 11.7612L19.9766 19.9993H22.9538L25.5336 12.3055C25.7289 11.7136 26.3216 11.251 27.1299 11.251H38.4056L38.8703 9.86328Z" fill="black"/>
<path d="M19.8838 14.1983L20.3755 12.7901H12.5081C13.0874 12.2595 13.6801 11.7629 14.3066 11.2935H20.847L21.3185 9.86492H16.462C19.9444 7.8105 23.9926 6.62683 28.3102 6.60642C31.5164 6.60642 34.7428 7.27989 37.6931 8.58601C39.2154 8.58601 40.7579 8.58601 42.2599 8.58601L42.1117 8.44316C41.3237 7.95336 40.5288 7.49078 39.6801 7.09622C39.1345 6.7901 38.5822 6.5384 37.9895 6.3003C34.891 5.02819 31.6376 4.40234 28.3035 4.40234C17.7755 4.40915 8.72262 10.8581 4.71484 20.001H17.9237L18.4086 18.5928H7.86718C8.15681 18.0758 8.46666 17.5792 8.79671 17.0894H18.9003L19.3516 15.6812H9.81381C10.218 15.1642 10.6423 14.6676 11.0869 14.1915H19.8838V14.1983Z" fill="#005486"/>
<path d="M28.3036 2.21088C35.0124 2.21088 41.1555 4.59863 45.9985 8.55101H49.2518C43.843 3.2653 36.4539 0 28.3036 0C15.3508 0 4.257 8.34693 0 20H2.32383C6.47979 9.60543 16.57 2.21088 28.3036 2.21088Z" fill="#005486"/>
</svg>
