<svg width="194" height="38" viewBox="0 0 194 38" fill="none" xmlns="http://www.w3.org/2000/svg">
<path d="M194 18.3613H172.617C168.162 18.3613 166.759 18.8171 165.84 21.8048L161.773 34.5279H157.294L156.433 37.2245H192.02L192.857 34.5279H188.778L194 18.3613ZM183.603 34.5279H177.474H166.971L170.684 22.9062C171.026 21.7668 172.063 20.8806 173.478 20.8806H177.474H187.953L183.603 34.5279Z" fill="white"/>
<path d="M154.877 18.3613L152.319 26.2357H135.652L138.245 18.3613H133.035L126.905 37.2245H132.174L134.85 28.793H151.459L148.771 37.2245H153.97L160.064 18.3613H154.877Z" fill="white"/>
<path d="M127.212 20.3353C126.528 19.0819 124.807 18.3477 123.487 18.3477H101.691L100.831 20.9303H121.247C122.037 20.9303 122.52 21.424 122.296 22.2342L121.082 25.8549H104.886C100.477 25.8549 99.0275 26.45 98.0727 29.4124L95.6562 37.2108H117.015C121.471 37.2108 122.874 36.6158 123.84 33.5901L127.223 22.8925L127.353 22.4115C127.612 21.6266 127.506 20.9429 127.212 20.3353ZM118.949 32.552C118.595 33.6787 117.699 34.5269 116.402 34.5269H103.094C102.363 34.5269 101.809 34.0459 102.139 33.223L103.165 30.0327C103.601 29.1085 104.532 28.4882 105.735 28.4882H120.281L118.949 32.552Z" fill="white"/>
<path d="M76.6076 18.3613C73.6843 18.3613 70.9142 18.3234 69.7826 21.8934L64.9497 37.2245H70.1362L72.5527 29.6033H88.6899C93.1102 29.6033 94.5601 29.0589 95.4913 26.0459L97.896 18.3613H76.6076ZM90.5995 24.9698C90.2223 26.0965 89.2557 26.97 87.853 26.97H73.4014L74.6391 22.9822C75.0163 21.7922 76.0182 20.9313 77.4681 20.9313H91.8961L90.5995 24.9698Z" fill="white"/>
<path d="M68.0261 18.3613H46.6198C42.2349 18.3613 40.7614 18.8424 39.8302 21.8934L34.9619 37.2245H40.172L44.6867 22.9062C45.0285 21.8048 46.0658 20.9439 47.4803 20.9439H67.2127L68.0261 18.3613Z" fill="white"/>
<path d="M34.7971 26.4255L35.6576 23.8049H21.8897C22.9034 22.8174 23.9407 21.8933 25.037 21.0197H36.4827L37.3079 18.3612H28.809C34.9032 14.5379 41.9875 12.3351 49.5434 12.2971C55.1543 12.2971 60.8005 13.5504 65.9635 15.9811C68.6275 15.9811 71.3268 15.9811 73.9555 15.9811L73.6961 15.7153C72.317 14.8038 70.926 13.9429 69.4408 13.2086C68.486 12.6389 67.5194 12.1705 66.4821 11.7274C61.0598 9.36002 55.3664 8.19531 49.5316 8.19531C31.1076 8.20797 15.2651 20.2095 8.25146 37.2243H31.3669L32.2156 34.6038H13.7681C14.2749 33.6416 14.8171 32.7174 15.3947 31.8059H33.0761L33.8659 29.1853H17.1747C17.8819 28.2232 18.6245 27.299 19.4025 26.4128H34.7971V26.4255Z" fill="#005486"/>
<path d="M49.5314 4.11836C61.2719 4.11836 72.0221 8.56197 80.4974 15.9173H86.1908C76.7254 6.08064 63.7944 0.00390625 49.5314 0.00390625C26.8639 0.00390625 7.44975 15.5375 0 37.2239H4.06672C11.3397 17.8796 28.9974 4.11836 49.5314 4.11836Z" fill="#005486"/>
</svg>
