<svg width="745" height="84" viewBox="0 0 745 84" fill="none" xmlns="http://www.w3.org/2000/svg">
<path d="M745 0.952148H644.835C623.963 0.952148 617.392 2.95263 613.085 16.0669L594.034 71.9138H573.052L569.021 83.75H735.724L739.644 71.9138H720.539L745 0.952148ZM696.298 71.9138H667.585H618.386L635.779 20.9014C637.381 15.9002 642.24 12.0104 648.866 12.0104H667.585H716.673L696.298 71.9138Z" fill="white" fill-opacity="0.5"/>
<path d="M561.732 0.952148L549.75 35.5713H471.727L483.82 0.952148H459.468L430.7 83.8047H455.382L467.972 46.7405H545.719L533.129 83.8047H557.48L586.083 0.952148H561.732Z" fill="white" fill-opacity="0.5"/>
<path d="M432.136 9.67649C428.933 4.17515 420.871 0.952148 414.687 0.952148H312.589L308.558 12.2882H404.195C407.895 12.2882 410.159 14.4554 409.11 18.0118L403.422 33.9046H327.553C306.901 33.9046 300.109 36.5163 295.637 49.5195L284.317 83.75H384.372C405.244 83.75 411.815 81.1383 416.343 67.8573L432.191 20.9014L432.798 18.7898C434.068 15.289 433.571 12.2882 432.136 9.67649ZM393.428 63.3006C391.771 68.2462 387.575 71.9694 381.501 71.9694H319.215C315.791 71.9694 313.196 69.8577 314.742 66.2458L319.546 52.2424C321.589 48.1858 325.951 45.4629 331.584 45.4629H399.723L393.428 63.3006Z" fill="white" fill-opacity="0.5"/>
<path d="M195.14 0.952221C181.446 0.952221 168.47 0.785516 163.169 16.4558L140.474 83.8047H164.77L176.09 50.3525H251.683C272.39 50.3525 279.182 47.9631 283.544 34.7378L294.809 0.952221H195.14ZM260.629 29.9589C258.862 34.9045 254.334 38.7387 247.763 38.7387H180.121L185.919 21.2347C187.686 16.0113 192.379 12.2326 199.171 12.2326H266.758L260.629 29.9589Z" fill="white" fill-opacity="0.5"/>
<path d="M154.886 0.952148H54.6106C34.0695 0.952148 27.1672 3.06375 22.7498 16.4557L0 83.8047H24.4063L45.5548 20.9012C47.1561 16.0668 52.0153 12.2881 58.6415 12.2881H151.076L154.886 0.952148Z" fill="white" fill-opacity="0.5"/>
</svg>
